<svg xmlns="http://www.w3.org/2000/svg" viewBox="0 0 100 100"><style>.style1{fill:	#403F40;}</style><path d="M50 0C22.4 0 0 22.4 0 50s22.4 50 50 50s50-22.4 50-50S77.6 0 50 0z M65.1 12.5 c6.5 0 11.8 5.3 11.8 11.8c0 6.5-5.3 11.8-11.8 11.8s-11.8-5.3-11.8-11.8C53.3 17.8 58.6 12.5 65.1 12.5z M43.6 16.8 c4.8 0 8.6 3.9 8.6 8.6c0 4.8-3.9 8.6-8.6 8.6c-4.8 0-8.6-3.9-8.6-8.6C35 20.6 38.9 16.8 43.6 16.8z M26.5 18.9 c3.9 0 7.1 3.2 7.1 7.1c0 3.9-3.2 7.1-7.1 7.1c-3.9 0-7.1-3.2-7.1-7.1C19.4 22.1 22.6 18.9 26.5 18.9z M81.1 55.3v27.9H49V68.6H31.9 v-7.3h-15V44.6h0c0-0.2 0-0.4 0-0.6c0-5.3 4.3-9.6 9.6-9.6c3.7 0 6.9 2.1 8.5 5.1c2.2-2.3 5.2-3.8 8.6-3.8c4.7 0 8.8 2.8 10.6 6.8 c2.9-2.6 6.6-4.2 10.8-4.2c8.9 0 16.1 7.2 16.1 16.1C81.1 54.6 81.1 55 81.1 55.3L81.1 55.3z" class="style1"/></svg>