<svg xmlns="http://www.w3.org/2000/svg" viewBox="0 0 100 100"><style>.style1{fill:	#403F40;}</style><g><polygon points="18.8,34.9 18.8,65.1 34,50" class="style1"/><polygon points="75.5,29.2 24.5,29.2 50,54.7" class="style1"/><path d="M52.8 63.2C52 64 51 64.4 50 64.4s-2-0.4-2.8-1.2l-7.6-7.6L24.5 70.8h51L60.4 55.7L52.8 63.2z" class="style1"/><path d="M50 0C22.4 0 0 22.4 0 50s22.4 50 50 50s50-22.4 50-50S77.6 0 50 0z M80.1 78.8H19.9c-5 0-9-4.1-9-9 V30.3c0-5 4.1-9 9-9h60.3c5 0 9 4.1 9 9v39.5C89.2 74.7 85.1 78.8 80.1 78.8z" class="style1"/><polygon points="81.2,65.1 81.2,34.9 66,50" class="style1"/></g></svg>