<svg xmlns="http://www.w3.org/2000/svg" viewBox="0 0 100 100"><style>.style1{fill:	#403F40;}</style><g><path d="M33.1 47H47V33c-4.5 0.1-8.6 0.3-12.2 0.7C33.8 37.7 33.2 42.2 33.1 47z" class="style1"/><path d="M34.8 66.2c3.7 0.4 7.8 0.7 12.2 0.7V53H33.1C33.2 57.8 33.8 62.3 34.8 66.2z" class="style1"/><path d="M36.6 27.6c3.3-0.3 6.8-0.5 10.4-0.5V13.6C43 15.3 39.2 20.3 36.6 27.6z" class="style1"/><path d="M47 86.4V73c-3.6-0.1-7.1-0.2-10.4-0.5C39.2 79.7 43 84.7 47 86.4z" class="style1"/><path d="M27.1 53H13.1c0.2 2.9 0.8 5.7 1.7 8.4c2.5 1.5 7.2 2.9 13.7 4C27.7 61.5 27.2 57.4 27.1 53z" class="style1"/><path d="M28.5 34.6c-6.4 1.1-11.1 2.5-13.7 4c-0.9 2.7-1.4 5.5-1.7 8.4h13.9C27.2 42.6 27.7 38.5 28.5 34.6z " class="style1"/><path d="M72.9 47h13.9c-0.2-2.9-0.8-5.7-1.7-8.4c-2.5-1.5-7.2-2.9-13.7-4C72.3 38.5 72.8 42.6 72.9 47z" class="style1"/><path d="M18.4 69.3c4.1 6.7 10.2 11.9 17.5 14.9c-2.4-3.4-4.4-7.6-5.9-12.5C25.7 71.1 21.7 70.3 18.4 69.3z" class="style1"/><path d="M35.9 15.8c-7.3 3-13.4 8.3-17.5 14.9c3.3-1 7.2-1.8 11.6-2.4C31.5 23.4 33.5 19.2 35.9 15.8z" class="style1"/><path d="M71.5 65.4c6.4-1.1 11.1-2.5 13.7-4c0.9-2.7 1.4-5.5 1.7-8.4H72.9C72.8 57.4 72.3 61.5 71.5 65.4z" class="style1"/><path d="M53 86.4c4-1.7 7.8-6.6 10.4-13.9c-3.3 0.3-6.8 0.5-10.4 0.5V86.4z" class="style1"/><path d="M64.1 84.2c7.3-3 13.4-8.3 17.5-14.9c-3.3 1-7.2 1.8-11.6 2.4C68.5 76.6 66.5 80.8 64.1 84.2z" class="style1"/><path d="M50 0C22.4 0 0 22.4 0 50c0 27.6 22.4 50 50 50s50-22.4 50-50C100 22.4 77.6 0 50 0z M50 93 C26.3 93 7 73.7 7 50C7 26.3 26.3 7 50 7s43 19.3 43 43C93 73.7 73.7 93 50 93z" class="style1"/><path d="M66.9 53H53v14c4.5-0.1 8.5-0.3 12.2-0.7C66.2 62.3 66.8 57.8 66.9 53z" class="style1"/><path d="M81.6 30.7c-4.1-6.7-10.2-11.9-17.5-14.9c2.4 3.4 4.4 7.6 5.9 12.5C74.3 28.9 78.3 29.7 81.6 30.7z" class="style1"/><path d="M53 13.6V27c3.6 0.1 7.1 0.3 10.4 0.5C60.8 20.3 57 15.3 53 13.6z" class="style1"/><path d="M65.2 33.8c-3.7-0.4-7.8-0.7-12.2-0.7v14h13.9C66.8 42.2 66.2 37.7 65.2 33.8z" class="style1"/></g></svg>